<?xml version="1.0" standalone="no"?>
<!DOCTYPE svg PUBLIC "-//W3C//DTD SVG 20010904//EN"
 "http://www.w3.org/TR/2001/REC-SVG-20010904/DTD/svg10.dtd">
<svg version="1.0" xmlns="http://www.w3.org/2000/svg"
 width="720.000000pt" height="360.000000pt" viewBox="0 0 720.000000 360.000000"
 preserveAspectRatio="xMidYMid meet">

<g transform="translate(0.000000,360.000000) scale(0.100000,-0.100000)"
fill="#000000" stroke="none">
<path d="M3192 2833 c-43 -21 -98 -86 -106 -125 -3 -17 -6 -210 -6 -429 l0
-399 -123 0 c-68 0 -166 -3 -218 -7 -83 -7 -89 -9 -49 -14 34 -5 28 -6 -22 -3
-88 4 -128 -8 -218 -67 l-75 -50 -355 -3 c-301 -2 -364 -6 -415 -20 -86 -25
-196 -78 -269 -129 -57 -40 -72 -46 -137 -52 -214 -20 -419 -87 -419 -135 0
-6 5 -10 10 -10 6 0 10 -9 10 -20 0 -11 -5 -20 -12 -20 -6 0 -4 -7 5 -18 10
-10 17 -24 17 -30 0 -18 -28 -14 -39 6 -8 15 -12 12 -25 -20 -19 -46 -20 -52
-2 -91 23 -53 26 -79 10 -109 l-15 -28 82 0 82 0 32 -37 c33 -38 33 -38 110
-38 77 0 77 0 110 38 l32 37 171 0 172 0 34 -37 c34 -37 36 -38 104 -38 57 0
76 4 101 22 16 13 34 23 38 23 4 0 16 -20 26 -45 11 -25 32 -56 49 -70 26 -22
39 -25 109 -25 44 0 90 5 102 11 24 13 66 59 67 74 0 6 9 20 19 33 19 21 25
22 193 22 l173 0 28 -53 c37 -72 66 -87 165 -87 72 0 84 3 111 25 16 14 33 35
36 45 5 17 11 14 49 -25 40 -42 46 -45 94 -45 l52 0 0 -108 c0 -130 19 -179
88 -227 l44 -30 446 0 c503 0 480 -3 546 78 l31 39 3 154 3 154 24 0 c38 0 78
19 102 48 l23 27 15 -23 c24 -34 68 -52 127 -52 66 0 108 24 139 79 l23 41
163 0 164 0 26 -30 c16 -20 34 -30 53 -30 15 0 33 -7 41 -16 23 -28 67 -44
119 -44 72 0 113 22 141 75 l24 44 30 -29 c26 -25 40 -30 91 -32 68 -3 105 11
124 48 11 20 22 24 74 27 l61 4 -68 0 c-37 0 -69 2 -71 4 -2 2 -6 34 -8 70 -6
83 -38 151 -82 179 -43 26 -74 25 -102 -1 l-23 -21 -6 35 c-10 51 -3 72 23 73
15 1 21 -3 18 -12 -3 -7 -1 -16 3 -19 5 -2 11 4 14 15 5 21 27 28 27 9 0 -5
-4 -7 -10 -4 -5 3 -10 1 -10 -4 0 -6 9 -11 20 -11 48 0 111 -57 138 -125 7
-16 15 -61 19 -100 7 -57 11 -70 27 -73 11 -2 16 0 12 6 -4 7 4 8 26 1 18 -5
87 -8 153 -8 83 1 108 4 80 9 -25 4 9 7 90 7 126 -1 127 -1 40 -7 l-90 -6 93
-2 c56 -1 92 2 92 8 0 14 33 12 49 -2 11 -10 13 -10 7 0 -5 9 7 12 51 11 46
-1 52 -3 28 -8 -28 -7 -27 -8 15 -12 l45 -4 0 45 c0 25 4 65 8 90 8 43 7 44
-8 25 -14 -17 -16 -18 -11 -2 3 10 2 16 -2 13 -4 -2 -75 -6 -157 -7 -83 -1
-156 -6 -162 -12 -9 -6 -13 -6 -13 1 0 8 -41 10 -125 8 -69 -1 -127 0 -130 2
-7 8 7 32 16 26 5 -3 9 -1 9 4 0 14 -39 59 -40 47 0 -6 5 -16 10 -21 7 -7 3
-14 -13 -21 -19 -9 -23 -8 -23 8 0 13 3 15 13 7 9 -7 13 -7 13 0 0 6 -4 14
-10 17 -6 4 -5 11 3 20 10 11 15 10 29 -8 10 -12 18 -17 18 -12 0 6 -10 23
-23 38 -16 20 -41 34 -90 47 -37 10 -67 15 -67 10 0 -5 -13 -2 -28 6 -16 7
-60 14 -98 15 -38 1 -87 8 -109 16 -89 33 -115 47 -115 62 0 14 2 14 10 1 8
-13 50 -15 275 -15 146 0 265 1 265 3 0 1 -32 23 -70 48 -96 62 -204 112 -270
124 -68 13 -369 13 -384 1 -7 -6 -17 -6 -26 -1 -8 6 -28 10 -43 10 -16 0 -26
4 -22 10 4 7 -24 8 -80 4 -79 -5 -91 -3 -158 24 -40 17 -110 38 -157 47 -65
12 -270 30 -392 35 -4 0 -9 206 -10 458 l-3 458 -24 36 c-13 19 -40 46 -59 59
l-36 24 -445 2 c-397 3 -450 1 -479 -14z m998 -1088 l0 -895 -530 0 -530 0 0
895 0 895 530 0 530 0 0 -895z m-1120 117 c0 -4 -26 -8 -57 -8 -58 -2 -58 -2
-13 6 67 11 70 11 70 2z m-243 -8 c-3 -3 -12 -4 -19 -1 -8 3 -5 6 6 6 11 1 17
-2 13 -5z m224 -77 l-24 -22 19 27 c10 14 21 24 23 22 3 -3 -6 -15 -18 -27z
m-30 -44 c-5 -10 -22 -29 -37 -43 -24 -22 -23 -20 6 18 35 44 47 54 31 25z
m2143 -78 c11 -8 16 -15 10 -15 -5 0 -18 7 -28 15 -11 8 -16 15 -10 15 5 0 18
-7 28 -15z m-2204 1 c0 -2 -8 -10 -17 -17 -16 -13 -17 -12 -4 4 13 16 21 21
21 13z m2275 -54 c11 -9 29 -27 39 -39 17 -21 17 -21 -1 -18 -10 1 -17 8 -15
14 1 6 -3 11 -9 11 -5 0 -7 5 -4 10 3 6 1 10 -5 10 -6 0 -18 7 -26 15 -21 21
-4 19 21 -3z m-2305 4 c0 -2 3 -13 6 -23 6 -16 5 -15 -9 2 -14 19 -16 19 -22
3 -7 -17 -31 -18 -339 -16 l-331 3 326 2 c275 3 329 6 339 18 12 14 30 20 30
11z m50 -41 c0 -8 -4 -15 -10 -15 -5 0 -7 7 -4 15 4 8 8 15 10 15 2 0 4 -7 4
-15z m87 -7 c-3 -8 -6 -5 -6 6 -1 11 2 17 5 13 3 -3 4 -12 1 -19z m-934 5 c-7
-2 -19 -2 -25 0 -7 3 -2 5 12 5 14 0 19 -2 13 -5z m-53 -7 c0 -2 -11 -6 -25
-8 -13 -3 -22 -1 -19 3 5 9 44 13 44 5z m126 -14 c-21 -2 -42 0 -47 5 -4 4 13
6 39 3 l47 -5 -39 -3z m-201 -1 c3 -5 0 -13 -6 -17 -8 -5 -9 -3 -4 6 6 10 4
12 -9 7 -10 -4 -15 -3 -11 3 8 13 22 13 30 1z m878 2 c-7 -2 -19 -2 -25 0 -7
3 -2 5 12 5 14 0 19 -2 13 -5z m144 1 c-3 -3 -12 -4 -19 -1 -8 3 -5 6 6 6 11
1 17 -2 13 -5z m-914 -11 c-7 -2 -21 -2 -30 0 -10 3 -4 5 12 5 17 0 24 -2 18
-5z m956 -20 c0 -25 -1 -25 -8 -8 -5 11 -7 23 -4 28 8 14 13 7 12 -20z m-1206
0 c-7 -2 -19 -2 -25 0 -7 3 -2 5 12 5 14 0 19 -2 13 -5z m344 -9 c-3 -3 -12
-4 -19 -1 -8 3 -5 6 6 6 11 1 17 -2 13 -5z m206 -1 c-7 -2 -19 -2 -25 0 -7 3
-2 5 12 5 14 0 19 -2 13 -5z m-46 -19 c-3 -3 -12 -4 -19 -1 -8 3 -5 6 6 6 11
1 17 -2 13 -5z m153 -15 c0 -6 -4 -7 -10 -4 -5 3 -10 11 -10 16 0 6 5 7 10 4
6 -3 10 -11 10 -16z m-28 -8 c4 -3 -9 -27 -29 -53 -33 -45 -38 -48 -81 -48
-26 0 -64 -3 -84 -6 -36 -6 -39 -5 -54 31 -8 20 -13 43 -10 50 3 8 37 15 98
20 63 5 86 10 73 16 -12 4 1 5 30 2 28 -3 53 -8 57 -12z m-225 3 c-3 -3 -12
-4 -19 -1 -8 3 -5 6 6 6 11 1 17 -2 13 -5z m-284 -11 c-13 -2 -33 -2 -45 0
-13 2 -3 4 22 4 25 0 35 -2 23 -4z m210 0 c-7 -2 -19 -2 -25 0 -7 3 -2 5 12 5
14 0 19 -2 13 -5z m-464 -12 c12 -8 12 -15 -1 -47 -19 -46 -48 -59 -48 -20 0
30 17 76 27 76 5 0 14 -4 22 -9z m1081 -3 c0 -3 8 -9 18 -11 9 -3 -3 -3 -28 1
-77 9 -102 21 -43 19 29 -1 53 -5 53 -9z m2045 -14 c44 -4 87 -10 95 -14 22
-12 65 -90 49 -90 -7 0 -68 10 -136 22 -116 20 -125 23 -139 49 -22 43 -18 52
19 45 17 -3 68 -8 112 -12z m-2171 -21 c-21 -15 -31 -16 -38 -4 -3 5 2 8 12 7
9 0 16 4 15 11 -2 8 4 10 14 6 14 -6 14 -8 -3 -20z m53 21 c-3 -3 -12 -4 -19
-1 -8 3 -5 6 6 6 11 1 17 -2 13 -5z m138 -14 c3 -6 -1 -7 -9 -4 -18 7 -21 14
-7 14 6 0 13 -4 16 -10z m-1401 -23 c9 -13 4 -23 -21 -48 -28 -29 -40 -33
-115 -40 -45 -4 -101 -8 -122 -8 -38 -1 -39 -1 -21 19 12 13 31 20 54 20 26 0
44 8 68 32 24 23 46 34 81 39 58 8 63 7 76 -14z m1156 3 c0 -5 -5 -10 -11 -10
-5 0 -7 5 -4 10 3 6 8 10 11 10 2 0 4 -4 4 -10z m285 -10 c10 -11 16 -20 13
-20 -3 0 -13 9 -23 20 -10 11 -16 20 -13 20 3 0 13 -9 23 -20z m2830 10 c4 -6
10 -8 15 -5 5 3 11 1 14 -4 7 -11 -9 -8 -44 7 -17 7 -20 11 -8 11 9 1 20 -4
23 -9z m-4435 -9 c0 -30 -86 -47 -100 -21 -5 10 -6 20 -3 24 10 9 103 7 103
-3z m660 -1 c0 -5 -21 -10 -46 -10 -27 0 -43 4 -39 10 3 6 24 10 46 10 21 0
39 -4 39 -10z m3675 0 c3 -5 -1 -10 -10 -10 -9 0 -13 5 -10 10 3 6 8 10 10 10
2 0 7 -4 10 -10z m-3010 -20 c-18 -20 -35 -18 -35 3 0 8 3 8 9 -1 6 -10 10
-10 21 3 7 8 15 15 18 15 3 0 -3 -9 -13 -20z m2665 -1 c0 -12 -57 -12 -65 0
-3 5 5 11 17 13 28 5 48 -1 48 -13z m362 -11 c-9 -9 -15 -9 -24 1 -11 10 -10
11 5 6 10 -5 17 -2 17 6 0 7 3 9 7 6 4 -4 1 -13 -5 -19z m-4669 -13 c-4 -15
-66 -12 -71 3 -3 10 6 13 34 10 22 -2 38 -7 37 -13z m1607 -16 c0 -6 -4 -7
-10 -4 -5 3 -10 11 -10 16 0 6 5 7 10 4 6 -3 10 -11 10 -16z m3072 -1 c-7 -7
-12 -8 -12 -2 0 14 12 26 19 19 2 -3 -1 -11 -7 -17z m-107 -22 c55 -55 58
-170 5 -226 -31 -33 -56 -38 -86 -15 -18 14 -18 14 10 15 28 0 28 0 24 55 -3
41 -1 56 10 60 14 5 13 64 -3 113 -10 29 9 29 40 -2z m-2982 1 c3 -8 2 -20 -3
-26 -5 -9 -7 -4 -7 13 0 29 2 32 10 13z m1951 -26 c93 -79 30 -308 -72 -259
-87 43 -89 231 -3 275 26 12 46 8 75 -16z m-2304 9 c0 -5 -5 -10 -11 -10 -5 0
-7 5 -4 10 3 6 8 10 11 10 2 0 4 -4 4 -10z m60 0 c-20 -13 -33 -13 -25 0 3 6
14 10 23 10 15 0 15 -2 2 -10z m-103 -6 c-3 -3 -12 -4 -19 -1 -8 3 -5 6 6 6
11 1 17 -2 13 -5z m210 0 c-3 -3 -12 -4 -19 -1 -8 3 -5 6 6 6 11 1 17 -2 13
-5z m445 -34 c61 -66 62 -188 2 -260 -53 -63 -137 -28 -164 68 -25 91 10 196
75 222 29 12 56 2 87 -30z m-1182 -25 c8 -18 18 -87 21 -137 0 -9 9 -20 20
-23 10 -4 19 -11 19 -16 0 -12 -4 -11 -33 2 -50 23 -77 107 -56 180 6 24 14
37 16 29 2 -8 8 -24 13 -35z m907 13 c-3 -8 -6 -5 -6 6 -1 11 2 17 5 13 3 -3
4 -12 1 -19z m3308 12 c3 -5 1 -10 -4 -10 -6 0 -11 5 -11 10 0 6 2 10 4 10 3
0 8 -4 11 -10z m40 0 c3 -5 -1 -10 -9 -10 -9 0 -16 5 -16 10 0 6 4 10 9 10 6
0 13 -4 16 -10z m115 0 c0 -6 -23 -9 -52 -8 l-53 1 50 7 c28 4 51 8 53 8 1 1
2 -2 2 -8z m350 -2 c0 -5 -54 -8 -121 -8 -66 0 -118 3 -116 8 3 4 57 7 121 7
64 0 116 -3 116 -7z m-272 -5 c-10 -2 -18 -9 -18 -14 0 -6 -5 -7 -11 -3 -14 8
8 24 31 23 11 -1 10 -3 -2 -6z m-268 -13 c0 -5 -7 -10 -16 -10 -8 0 -12 5 -9
10 3 6 10 10 16 10 5 0 9 -4 9 -10z m205 -9 c-3 -6 -14 -10 -23 -10 -15 1 -15
2 1 6 9 2 17 9 17 15 0 6 3 9 6 5 3 -3 3 -10 -1 -16z m351 -12 c-5 -33 -16
-52 -16 -28 0 20 11 59 17 59 2 0 2 -14 -1 -31z m-3963 -19 c6 -25 -7 -34 -39
-26 -15 4 -24 14 -24 26 0 29 55 28 63 0z m3314 -17 c-3 -10 -5 -4 -5 12 0 17
2 24 5 18 2 -7 2 -21 0 -30z m223 33 c0 -2 -7 -7 -16 -10 -8 -3 -12 -2 -9 4 6
10 25 14 25 6z m-179 -23 c10 -11 10 -14 2 -9 -7 4 -13 2 -13 -3 0 -6 -5 -11
-11 -11 -8 0 -8 4 0 14 9 11 9 15 -1 19 -8 3 -8 6 -2 6 6 1 18 -7 25 -16z m33
-8 c-4 -8 -8 -15 -10 -15 -2 0 -4 7 -4 15 0 8 4 15 10 15 5 0 7 -7 4 -15z
m147 8 c-9 -4 -10 -8 -3 -12 7 -4 3 -12 -9 -20 -17 -10 -20 -10 -13 1 5 7 9
16 10 21 1 4 2 9 3 12 0 3 7 5 14 4 8 0 8 -2 -2 -6z m43 -2 c3 -5 -2 -15 -12
-22 -15 -13 -16 -12 -4 3 10 13 10 17 0 21 -9 4 -9 6 -1 6 6 1 14 -3 17 -8z
m-89 -23 c-14 -8 -15 -12 -4 -19 10 -6 7 -8 -8 -6 -17 1 -19 4 -11 14 13 17
-4 17 -22 1 -12 -11 -12 -10 -2 3 7 9 24 17 39 17 22 0 24 -2 8 -10z m-138
-24 c-3 -3 -12 -4 -19 -1 -8 3 -5 6 6 6 11 1 17 -2 13 -5z m59 -12 c-16 -2
-32 0 -37 5 -5 5 7 7 29 4 34 -5 35 -6 8 -9z"/>
<path d="M3865 2551 c-35 -15 -74 -62 -81 -97 -7 -38 15 -90 71 -166 44 -60
65 -61 106 -5 73 100 88 170 47 222 -35 45 -97 64 -143 46z m94 -77 c26 -33
26 -55 4 -82 -42 -50 -123 -24 -123 39 0 65 80 93 119 43z"/>
<path d="M3373 2050 c-78 -47 -82 -114 -14 -222 64 -101 85 -101 148 -1 24 36
46 81 49 100 12 65 -56 143 -126 143 -14 0 -39 -9 -57 -20z m109 -57 c37 -33
18 -98 -35 -116 -25 -9 -73 18 -81 45 -8 32 -8 32 15 62 24 31 72 35 101 9z"/>
<path d="M3864 1684 c-74 -25 -101 -97 -65 -171 39 -81 83 -133 110 -130 30 2
107 111 117 164 18 98 -66 170 -162 137z m91 -69 c28 -27 29 -33 15 -69 -26
-70 -130 -50 -130 25 0 63 70 90 115 44z"/>
<path d="M3673 1295 c-38 -16 -73 -68 -73 -109 0 -31 54 -136 90 -173 27 -30
45 -29 74 2 35 38 86 139 86 171 0 42 -35 93 -75 110 -42 17 -61 17 -102 -1z
m99 -62 c36 -43 27 -93 -22 -113 -29 -12 -65 -1 -82 24 -13 20 -8 69 9 88 21
23 75 24 95 1z"/>
<path d="M5560 1245 c1 -26 2 -28 11 -12 8 14 8 22 0 30 -8 8 -11 3 -11 -18z"/>
<path d="M5576 1195 c-3 -8 -1 -15 4 -15 6 0 10 7 10 15 0 8 -2 15 -4 15 -2 0
-6 -7 -10 -15z"/>
<path d="M5562 1138 c6 -18 28 -21 28 -4 0 9 -7 16 -16 16 -9 0 -14 -5 -12
-12z"/>
<path d="M5540 1108 c0 -16 5 -28 10 -28 13 0 13 20 0 40 -8 12 -10 9 -10 -12z"/>
<path d="M4494 1239 c-10 -17 13 -36 27 -22 12 12 4 33 -11 33 -5 0 -12 -5
-16 -11z"/>
<path d="M4456 1205 c-9 -24 -7 -45 3 -45 5 0 13 9 16 21 8 26 -9 48 -19 24z"/>
<path d="M4540 1206 c0 -23 11 -46 20 -41 10 6 0 55 -11 55 -5 0 -9 -6 -9 -14z"/>
<path d="M4456 1131 c-9 -14 2 -51 15 -51 11 0 12 30 0 49 -6 9 -11 10 -15 2z"/>
<path d="M4546 1124 c-9 -23 -7 -44 3 -44 11 0 21 49 11 55 -4 3 -11 -2 -14
-11z"/>
<path d="M4497 1084 c-14 -14 -7 -35 11 -32 9 2 17 10 17 17 0 16 -18 25 -28
15z"/>
<path d="M2736 1212 c-9 -14 12 -35 28 -29 23 9 20 37 -3 37 -11 0 -22 -4 -25
-8z"/>
<path d="M2696 1164 c-8 -29 -3 -39 13 -29 13 8 15 55 2 55 -5 0 -12 -12 -15
-26z"/>
<path d="M2794 1177 c-8 -23 3 -50 19 -44 13 4 11 36 -4 51 -5 6 -11 3 -15 -7z"/>
<path d="M2690 1089 c0 -28 13 -59 21 -53 14 8 10 40 -6 54 -12 10 -15 10 -15
-1z"/>
<path d="M2801 1086 c-14 -17 -11 -52 4 -49 13 2 24 38 16 52 -6 9 -11 8 -20
-3z"/>
<path d="M2735 1030 c-4 -7 -3 -16 3 -22 14 -14 45 -2 40 15 -6 16 -34 21 -43
7z"/>
<path d="M1641 1184 c0 -11 3 -14 6 -6 3 7 2 16 -1 19 -3 4 -6 -2 -5 -13z"/>
<path d="M1646 1115 c4 -8 8 -15 10 -15 2 0 4 7 4 15 0 8 -4 15 -10 15 -5 0
-7 -7 -4 -15z"/>
<path d="M5068 1703 c7 -3 16 -2 19 1 4 3 -2 6 -13 5 -11 0 -14 -3 -6 -6z"/>
<path d="M6230 1381 c-119 -5 -142 -9 -200 -34 -36 -16 -69 -33 -74 -37 -5 -5
23 -8 65 -6 41 2 140 4 222 5 l148 1 -16 30 c-9 17 -13 35 -10 40 3 6 5 9 3 8
-2 -1 -64 -4 -138 -7z m34 -36 c-4 -8 -10 -15 -15 -15 -5 0 -9 7 -9 15 0 8 7
15 15 15 9 0 12 -6 9 -15z"/>
<path d="M5830 1311 c0 -5 7 -14 15 -21 12 -10 19 -10 27 -2 7 7 23 13 38 13
24 1 23 2 -5 9 -43 11 -75 11 -75 1z"/>
<path d="M6228 1103 c7 -3 16 -2 19 1 4 3 -2 6 -13 5 -11 0 -14 -3 -6 -6z"/>
<path d="M6125 1080 l-130 -5 30 -31 c59 -60 179 -53 218 14 10 17 17 31 15
30 -1 -1 -61 -5 -133 -8z"/>
</g>
</svg>
